<svg width="536" height="291" viewBox="0 0 536 291" fill="none" xmlns="http://www.w3.org/2000/svg">
<g clip-path="url(#clip0_1_4)">
<path d="M0 120C0 86.8629 26.8629 60 60 60H400V150C400 183.137 373.137 210 340 210H60C26.8629 210 0 183.137 0 150V120Z" fill="black"/>
<path d="M136 60C136 26.8629 162.863 0 196 0H476C509.137 0 536 26.8629 536 60V90C536 123.137 509.137 150 476 150H136V60Z" fill="black"/>
<path d="M449.489 75.3798C440.484 50.5028 412.999 37.6567 388.138 46.7054C363.292 55.7485 350.492 83.2301 359.557 108.068L388 186C396 175 400.5 161.5 400.5 150C400.5 149 446.82 150 476.5 150L449.489 75.3798Z" fill="white"/>
<path d="M349 105C349.753 101.989 352.571 104 352.571 104H357.5C357.5 104 359 102.086 359 105.5C359 106 361.5 117 356.5 116.5C353.406 116.191 354 109 354 109C354 109 352.868 115.302 349.434 115.302C346 115.302 348.5 107 349 105Z" fill="#FF0000"/>
<path d="M325.969 103.72C341.143 103.384 349.32 104 363 107.261C359.345 101.982 358.795 97.0771 359.193 86.5359C340.019 93.0398 333.326 96.8223 325.969 103.72Z" fill="#FFE100"/>
<path d="M367.5 27.2353L371 68C392.352 51.8577 430.519 47.7059 449.403 75L463.5 47L444.5 50.6912L437 27.2353L420.5 42.5L405 19.5L396 42.5L367.5 27.2353Z" fill="#FF0000"/>
<ellipse cx="9.26114" cy="6.73709" rx="9.26114" ry="6.73709" transform="matrix(-0.957277 0.289172 0.289172 0.957277 390.104 86.1014)" fill="black"/>
<path d="M399.193 76.2265C398.729 74.9448 397.314 74.2819 396.032 74.7456L370.2 84.0938C367.982 84.8965 366.834 87.3454 367.637 89.5636C367.994 90.5495 369.082 91.0595 370.068 90.7027L396.971 80.967C398.894 80.2713 399.888 78.1489 399.193 76.2265Z" fill="black"/>
<path d="M137.578 129.301C128.518 104.451 101.034 91.6439 76.1788 100.69C51.3069 109.743 38.4876 137.249 47.5502 162.117L65 210L167 210L137.578 129.301Z" fill="white"/>
<path d="M37.0002 159C37.7528 155.989 40.5709 158 40.5709 158H45.5003C45.5003 158 46.9997 156.086 47 159.5C47.0001 160 49.5 171 44.5 170.5C41.4064 170.191 42 163 42 163C42 163 40.8686 169.302 37.4343 169.302C34 169.302 36.5002 161 37.0002 159Z" fill="#FF0000"/>
<path d="M13.969 157.72C29.1436 157.384 37.3197 158 51 161.261C47.3451 155.982 46.7948 151.077 47.1934 140.536C28.0194 147.04 21.3264 150.822 13.969 157.72Z" fill="#FFE100"/>
<path d="M60.2465 78L60.2465 119.968C82.1534 104.588 120.089 102.558 138 130.5L156.541 113.296L137.066 105.355L143.039 82.0955L116.319 96.9432L109.944 70.6877L84.3458 90.2691L60.2465 78Z" fill="#FF0000"/>
<ellipse cx="9.26114" cy="6.73709" rx="9.26114" ry="6.73709" transform="matrix(-0.957277 0.289172 0.289172 0.957277 78.1036 140.101)" fill="black"/>
<path d="M88.2234 134.444C88.0348 133.094 86.7876 132.153 85.4377 132.342L58.2302 136.144C55.894 136.47 54.2647 138.629 54.5912 140.965C54.7363 142.004 55.6957 142.728 56.734 142.583L85.0696 138.623C87.0944 138.34 88.5064 136.469 88.2234 134.444Z" fill="black"/>
<path d="M300.313 144.153C294.377 118.419 268.706 102.367 242.971 108.298C217.167 114.245 201.107 140.028 207.147 165.811L217.5 210L315.5 210L300.313 144.153Z" fill="white"/>
<path d="M197.103 157.557C198.503 154.787 200.806 157.372 200.806 157.372L205.613 158.463C205.613 158.463 207.499 156.928 206.744 160.257C206.633 160.745 206.637 172.025 201.872 170.431C198.923 169.445 201.093 162.564 201.093 162.564C201.093 162.564 198.595 168.459 195.246 167.699C191.897 166.939 196.172 159.397 197.103 157.557Z" fill="#FF0000"/>
<path d="M174.926 151.212C189.799 154.242 197.635 156.652 210.255 162.86C207.859 156.903 208.408 151.998 211.129 141.806C190.991 143.906 183.627 146.113 174.926 151.212Z" fill="#FFE100"/>
<path d="M231.5 83L223.5 122.5C246.665 109.089 284.803 114.498 300.209 143.896L320 115.5L301.051 119.507L297 89.5L281.117 109.317L268 78.2088L249.847 99.8794L231.5 83Z" fill="#FF0000"/>
<ellipse cx="9.26114" cy="6.73709" rx="9.26114" ry="6.73709" transform="matrix(-0.985449 0.169974 0.169974 0.985449 239.997 147.664)" fill="black"/>
<path d="M251.3 143.462C251.208 142.102 250.032 141.074 248.672 141.166L221.262 143.008C218.908 143.166 217.128 145.203 217.286 147.556C217.357 148.602 218.262 149.393 219.308 149.323L247.854 147.404C249.894 147.267 251.437 145.502 251.3 143.462Z" fill="black"/>
<path d="M208.909 237.818V264H203.539L193.12 248.889H192.954V264H186.626V237.818H192.072L202.376 252.903H202.593V237.818H208.909ZM219.216 237.818V264H212.888V237.818H219.216ZM246.954 247.304H240.562C240.477 246.648 240.302 246.055 240.038 245.527C239.774 244.999 239.424 244.547 238.99 244.172C238.555 243.797 238.039 243.511 237.443 243.315C236.855 243.111 236.203 243.009 235.487 243.009C234.217 243.009 233.122 243.32 232.201 243.942C231.289 244.564 230.586 245.463 230.092 246.639C229.606 247.815 229.363 249.239 229.363 250.909C229.363 252.648 229.61 254.105 230.105 255.281C230.608 256.449 231.311 257.331 232.214 257.928C233.126 258.516 234.204 258.81 235.449 258.81C236.147 258.81 236.782 258.72 237.353 258.541C237.933 258.362 238.44 258.102 238.875 257.761C239.318 257.412 239.68 256.99 239.961 256.496C240.251 255.993 240.451 255.426 240.562 254.795L246.954 254.834C246.843 255.993 246.507 257.135 245.944 258.26C245.39 259.385 244.627 260.412 243.656 261.341C242.684 262.261 241.5 262.994 240.102 263.54C238.713 264.085 237.119 264.358 235.321 264.358C232.951 264.358 230.829 263.838 228.954 262.798C227.088 261.75 225.613 260.224 224.531 258.222C223.449 256.219 222.907 253.781 222.907 250.909C222.907 248.028 223.457 245.587 224.556 243.584C225.656 241.581 227.143 240.06 229.018 239.02C230.893 237.98 232.994 237.46 235.321 237.46C236.906 237.46 238.372 237.682 239.718 238.125C241.065 238.56 242.25 239.199 243.272 240.043C244.295 240.878 245.126 241.905 245.765 243.124C246.404 244.342 246.801 245.736 246.954 247.304ZM250.575 264V237.818H256.903V248.889H257.249L265.903 237.818H273.357L264.075 249.503L273.523 264H265.955L259.435 253.709L256.903 256.905V264H250.575ZM283.587 264V237.818H301.843V242.957H289.915V248.327H300.909V253.479H289.915V258.861H301.843V264H283.587ZM319.958 245.668C319.873 244.73 319.493 244.001 318.82 243.482C318.155 242.953 317.205 242.689 315.969 242.689C315.151 242.689 314.469 242.795 313.924 243.009C313.378 243.222 312.969 243.516 312.696 243.891C312.424 244.257 312.283 244.679 312.275 245.156C312.257 245.548 312.334 245.893 312.505 246.192C312.684 246.49 312.939 246.754 313.272 246.984C313.613 247.206 314.022 247.402 314.499 247.572C314.976 247.743 315.513 247.892 316.11 248.02L318.36 248.531C319.655 248.812 320.797 249.188 321.786 249.656C322.783 250.125 323.618 250.683 324.292 251.331C324.973 251.979 325.489 252.724 325.838 253.568C326.188 254.412 326.367 255.358 326.375 256.406C326.367 258.06 325.949 259.479 325.123 260.663C324.296 261.848 323.107 262.756 321.556 263.386C320.013 264.017 318.151 264.332 315.969 264.332C313.779 264.332 311.87 264.004 310.242 263.348C308.614 262.692 307.348 261.695 306.445 260.357C305.542 259.018 305.077 257.327 305.051 255.281H311.111C311.162 256.125 311.388 256.828 311.789 257.391C312.189 257.953 312.739 258.379 313.438 258.669C314.145 258.959 314.963 259.104 315.892 259.104C316.745 259.104 317.469 258.989 318.066 258.759C318.671 258.528 319.135 258.209 319.459 257.8C319.783 257.391 319.949 256.922 319.958 256.393C319.949 255.899 319.796 255.477 319.498 255.128C319.199 254.77 318.739 254.463 318.117 254.207C317.503 253.943 316.719 253.7 315.765 253.479L313.029 252.839C310.762 252.32 308.976 251.48 307.672 250.321C306.368 249.153 305.721 247.577 305.729 245.591C305.721 243.972 306.155 242.553 307.033 241.334C307.911 240.115 309.125 239.165 310.676 238.483C312.228 237.801 313.996 237.46 315.982 237.46C318.01 237.46 319.77 237.805 321.262 238.496C322.762 239.178 323.925 240.136 324.752 241.372C325.578 242.608 326 244.04 326.017 245.668H319.958ZM343.723 245.668C343.638 244.73 343.259 244.001 342.586 243.482C341.921 242.953 340.971 242.689 339.735 242.689C338.917 242.689 338.235 242.795 337.689 243.009C337.144 243.222 336.735 243.516 336.462 243.891C336.189 244.257 336.049 244.679 336.04 245.156C336.023 245.548 336.1 245.893 336.27 246.192C336.449 246.49 336.705 246.754 337.037 246.984C337.378 247.206 337.787 247.402 338.265 247.572C338.742 247.743 339.279 247.892 339.875 248.02L342.125 248.531C343.421 248.812 344.563 249.188 345.551 249.656C346.549 250.125 347.384 250.683 348.057 251.331C348.739 251.979 349.255 252.724 349.604 253.568C349.953 254.412 350.132 255.358 350.141 256.406C350.132 258.06 349.715 259.479 348.888 260.663C348.061 261.848 346.873 262.756 345.321 263.386C343.779 264.017 341.917 264.332 339.735 264.332C337.544 264.332 335.635 264.004 334.007 263.348C332.38 262.692 331.114 261.695 330.211 260.357C329.307 259.018 328.843 257.327 328.817 255.281H334.877C334.928 256.125 335.154 256.828 335.554 257.391C335.955 257.953 336.505 258.379 337.203 258.669C337.911 258.959 338.729 259.104 339.658 259.104C340.51 259.104 341.235 258.989 341.831 258.759C342.436 258.528 342.901 258.209 343.225 257.8C343.549 257.391 343.715 256.922 343.723 256.393C343.715 255.899 343.561 255.477 343.263 255.128C342.965 254.77 342.505 254.463 341.882 254.207C341.269 253.943 340.485 253.7 339.53 253.479L336.794 252.839C334.527 252.32 332.742 251.48 331.438 250.321C330.134 249.153 329.486 247.577 329.495 245.591C329.486 243.972 329.921 242.553 330.799 241.334C331.676 240.115 332.891 239.165 334.442 238.483C335.993 237.801 337.762 237.46 339.748 237.46C341.776 237.46 343.536 237.805 345.027 238.496C346.527 239.178 347.691 240.136 348.517 241.372C349.344 242.608 349.766 244.04 349.783 245.668H343.723Z" fill="white"/>
</g>
<defs>
<clipPath id="clip0_1_4">
<rect width="536" height="291" fill="white"/>
</clipPath>
</defs>
</svg>
