<svg width="300" height="150" viewBox="0 0 300 150" fill="none" xmlns="http://www.w3.org/2000/svg">
<path d="M0 50C0 22.3858 22.3858 0 50 0H200C255.228 0 300 44.7715 300 100V100C300 127.614 277.614 150 250 150H100C44.7715 150 0 105.228 0 50V50Z" fill="black"/>
<path d="M109.526 111.672L106.79 80.76C107.782 80.44 109.03 80.12 110.534 79.8C112.07 79.448 113.75 79.16 115.574 78.936C117.398 78.712 119.238 78.6 121.094 78.6C122.886 78.6 124.63 78.776 126.326 79.128C128.054 79.48 129.59 80.072 130.934 80.904C131.51 82.632 131.798 84.28 131.798 85.848C131.798 88.44 131.046 90.712 129.542 92.664C128.07 94.584 126.102 96.2 123.638 97.512C121.174 98.792 118.454 99.768 115.478 100.44L114.326 111.192L109.526 111.672ZM115.814 97.176C117.99 95.992 119.654 94.488 120.806 92.664C121.958 90.808 122.534 89 122.534 87.24C122.534 86.12 122.278 85.08 121.766 84.12C121.286 83.128 120.534 82.328 119.51 81.72C119.19 81.72 118.838 81.752 118.454 81.816C118.102 81.88 117.75 81.96 117.398 82.056L115.814 97.176ZM137.06 111.72L132.26 111L141.236 79.08L152.852 79.8L159.092 111L154.772 111.72L151.46 103.752L138.692 104.808L137.06 111.72ZM150.404 101.208L143.732 85.128H143.348L139.556 101.112L150.404 101.208ZM189.413 112.824L176.405 98.808C176.181 98.872 175.941 98.92 175.685 98.952C175.461 98.984 175.237 99.032 175.013 99.096L173.717 111.192L168.917 111.672L166.181 80.76C167.173 80.44 168.469 80.12 170.069 79.8C171.701 79.448 173.461 79.16 175.349 78.936C177.237 78.712 179.109 78.6 180.965 78.6C182.757 78.6 184.501 78.776 186.197 79.128C187.925 79.48 189.461 80.072 190.805 80.904C191.381 82.632 191.669 84.216 191.669 85.656C191.669 87.8 191.029 89.704 189.749 91.368C188.469 93.032 186.789 94.456 184.709 95.64L192.773 110.952L189.413 112.824ZM175.349 96.024C177.621 95 179.365 93.64 180.581 91.944C181.797 90.248 182.405 88.584 182.405 86.952C182.405 85.928 182.149 84.952 181.637 84.024C181.157 83.096 180.405 82.328 179.381 81.72C178.965 81.72 178.533 81.768 178.085 81.864C177.669 81.928 177.237 82.04 176.789 82.2L175.349 96.024ZM205.308 111.672L202.908 84.024L196.188 84.696L195.9 79.752L220.428 79.08L220.284 82.296L213.564 82.968L210.588 111.192L205.308 111.672ZM232.332 111.672L230.844 100.968L221.34 80.376L232.14 79.08L235.98 96.456H236.412L243.324 79.224L247.212 80.28L238.956 99.72L237.132 111.192L232.332 111.672Z" fill="white"/>
<path d="M80.3308 71.72L69.9148 48.056H69.6268L68.8588 71L64.0588 71.24L66.3148 39.8L77.9308 39.32L82.7788 62.168L88.3948 39.08L100.011 39.8L101.451 71L97.1308 71.72L90.2668 46.184H89.8828L84.6508 71L80.3308 71.72ZM112.033 71.432L109.777 39.8L130.945 39.128L130.801 42.344L120.673 43.544L119.424 53.48L129.649 53.384L129.889 57.704L119.041 56.888L117.745 67.592L130.993 66.056L130.801 71L112.033 71.432ZM144.503 71.672L142.103 44.024L135.383 44.696L135.095 39.752L159.623 39.08L159.479 42.296L152.759 42.968L149.783 71.192L144.503 71.672ZM165.365 71.72L160.565 71L169.541 39.08L181.157 39.8L187.397 71L183.077 71.72L179.765 63.752L166.997 64.808L165.365 71.72ZM178.709 61.208L172.037 45.128H171.653L167.861 61.112L178.709 61.208Z" fill="white"/>
</svg>
